<svg xmlns="http://www.w3.org/2000/svg" style="display:none">

  <!-- Features icons (64x64) -->

  <symbol id="icon-antenna" viewBox="0 0 64 64">
    <path d="M32 52a6 6 0 1 0 0-12 6 6 0 0 0 0 12zm0-16c5.52 0 10 4.48 10 10h4c0-7.73-6.27-14-14-14S18 38.27 18 46h4c0-5.52 4.48-10 10-10zm0-12c11.05 0 20 8.95 20 20h4c0-13.25-10.75-24-24-24S8 32.75 8 46h4c0-11.05 8.95-20 20-20zM30 6h4v18h-4z"/>
  </symbol>

  <symbol id="icon-clock" viewBox="0 0 64 64">
    <path d="M32 8C18.7 8 8 18.7 8 32s10.7 24 24 24 24-10.7 24-24S45.3 8 32 8zm0 4c11.05 0 20 8.95 20 20s-8.95 20-20 20S12 43.05 12 32s8.95-20 20-20zm2 10h-4v14l9 9 2.83-2.83-7.83-7.83V22z"/>
  </symbol>

  <symbol id="icon-diagram" viewBox="0 0 64 64">
    <rect x="8" y="30" width="14" height="26"/>
    <rect x="25" y="18" width="14" height="38"/>
    <rect x="42" y="6" width="14" height="50"/>
    <rect x="6" y="56" width="52" height="4"/>
  </symbol>

  <symbol id="icon-astronaut" viewBox="0 0 64 64">
    <path d="M32 4C19.3 4 9 14.3 9 27c0 8.5 4.6 16 11.5 20.1L17 60h30l-3.5-12.9C50.4 43 55 35.5 55 27 55 14.3 44.7 4 32 4zm0 4c10.5 0 19 8.5 19 19S42.5 46 32 46 13 37.5 13 27s8.5-19 19-19zM20 27h24v6H20zm6-8h12v6H26z"/>
  </symbol>

  <!-- Social icons (24x24) -->

  <symbol id="icon-instagram" viewBox="0 0 24 24">
    <path d="M12 2.163c3.204 0 3.584.012 4.85.07 3.252.148 4.771 1.691 4.919 4.919.058 1.265.069 1.645.069 4.849 0 3.205-.012 3.584-.069 4.849-.149 3.225-1.664 4.771-4.919 4.919-1.266.058-1.644.07-4.85.07-3.204 0-3.584-.012-4.849-.07-3.26-.149-4.771-1.699-4.919-4.92-.058-1.265-.07-1.644-.07-4.849 0-3.204.013-3.583.07-4.849.149-3.227 1.664-4.771 4.919-4.919 1.266-.057 1.645-.069 4.849-.069zM12 0C8.741 0 8.333.014 7.053.072 2.695.272.273 2.69.073 7.052.014 8.333 0 8.741 0 12c0 3.259.014 3.668.072 4.948.2 4.358 2.618 6.78 6.98 6.98C8.333 23.986 8.741 24 12 24c3.259 0 3.668-.014 4.948-.072 4.354-.2 6.782-2.618 6.979-6.98.059-1.28.073-1.689.073-4.948 0-3.259-.014-3.667-.072-4.947-.196-4.354-2.617-6.78-6.979-6.98C15.668.014 15.259 0 12 0zm0 5.838a6.162 6.162 0 1 0 0 12.324 6.162 6.162 0 0 0 0-12.324zM12 16a4 4 0 1 1 0-8 4 4 0 0 1 0 8zm6.406-11.845a1.44 1.44 0 1 0 0 2.881 1.44 1.44 0 0 0 0-2.881z"/>
  </symbol>

  <symbol id="icon-twitter" viewBox="0 0 24 24">
    <path d="M23.953 4.57a10 10 0 01-2.825.775 4.958 4.958 0 002.163-2.723c-.951.555-2.005.959-3.127 1.184a4.92 4.92 0 00-8.384 4.482C7.69 8.095 4.067 6.13 1.64 3.162a4.822 4.822 0 00-.666 2.475c0 1.71.87 3.213 2.188 4.096a4.904 4.904 0 01-2.228-.616v.06a4.923 4.923 0 003.946 4.827 4.996 4.996 0 01-2.212.085 4.936 4.936 0 004.604 3.417 9.867 9.867 0 01-6.102 2.105c-.39 0-.779-.023-1.17-.067a13.995 13.995 0 007.557 2.209c9.053 0 13.998-7.496 13.998-13.985 0-.21 0-.42-.015-.63A9.935 9.935 0 0024 4.59z"/>
  </symbol>

  <symbol id="icon-facebook" viewBox="0 0 24 24">
    <path d="M24 12.073c0-6.627-5.373-12-12-12s-12 5.373-12 12c0 5.99 4.388 10.954 10.125 11.854v-8.385H7.078v-3.47h3.047V9.43c0-3.007 1.792-4.669 4.533-4.669 1.312 0 2.686.235 2.686.235v2.953H15.83c-1.491 0-1.956.925-1.956 1.874v2.25h3.328l-.532 3.47h-2.796v8.385C19.612 23.027 24 18.062 24 12.073z"/>
  </symbol>

  <symbol id="icon-linkedin" viewBox="0 0 24 24">
    <path d="M20.447 20.452h-3.554v-5.569c0-1.328-.027-3.037-1.852-3.037-1.853 0-2.136 1.445-2.136 2.939v5.667H9.351V9h3.414v1.561h.046c.477-.9 1.637-1.85 3.37-1.85 3.601 0 4.267 2.37 4.267 5.455v6.286zM5.337 7.433a2.062 2.062 0 01-2.063-2.065 2.064 2.064 0 112.063 2.065zm1.782 13.019H3.555V9h3.564v11.452zM22.225 0H1.771C.792 0 0 .774 0 1.729v20.542C0 23.227.792 24 1.771 24h20.451C23.2 24 24 23.227 24 22.271V1.729C24 .774 23.2 0 22.222 0h.003z"/>
  </symbol>

  <!-- Modal + Form icons -->

  <symbol id="icon-close" viewBox="0 0 8 8">
    <path d="M.364.364a.5.5 0 0 1 .707 0L4 3.293 6.929.364a.5.5 0 1 1 .707.707L4.707 4l2.929 2.929a.5.5 0 1 1-.707.707L4 4.707 1.071 7.636a.5.5 0 0 1-.707-.707L3.293 4 .364 1.071a.5.5 0 0 1 0-.707z"/>
  </symbol>

  <symbol id="icon-person" viewBox="0 0 18 24">
    <path d="M9 11a4 4 0 1 0 0-8 4 4 0 0 0 0 8zm0 2c-4.42 0-8 2.015-8 4.5V19h16v-1.5C17 15.015 13.42 13 9 13z"/>
  </symbol>

  <symbol id="icon-phone" viewBox="0 0 18 24">
    <path d="M3.59 2H6.5l1.64 4.13-2.05 1.23C7 9.28 8.72 11 10.64 11.91l1.23-2.05L16 11.5v2.91C16 15.31 14.31 17 12.5 17 7.25 17 1 10.75 1 5.5 1 3.69 2.69 2 4.5 2h-.91z"/>
  </symbol>

  <symbol id="icon-email" viewBox="0 0 18 24">
    <path d="M1 5a2 2 0 0 1 2-2h12a2 2 0 0 1 2 2v10a2 2 0 0 1-2 2H3a2 2 0 0 1-2-2V5zm2 0v.217l6 3.6 6-3.6V5H3zm0 2.383V15h12V7.383l-5.724 3.434a.5.5 0 0 1-.552 0L3 7.383z"/>
  </symbol>

  <symbol id="icon-checkmark" viewBox="0 0 10 8">
    <path d="M8.944.945a.5.5 0 0 1 .111.694l-5 6.5a.5.5 0 0 1-.762.034L.647 5.173a.5.5 0 0 1 .706-.706l2.39 2.39 4.495-5.845a.5.5 0 0 1 .706-.067z"/>
  </symbol>

  <symbol id="icon-send" viewBox="0 0 24 24">
    <path d="M2.01 21L23 12 2.01 3 2 10l15 2-15 2z"/>
  </symbol>

  <symbol id="icon-menu" viewBox="0 0 24 24">
    <rect x="2" y="5" width="20" height="2"/>
    <rect x="2" y="11" width="20" height="2"/>
    <rect x="2" y="17" width="20" height="2"/>
  </symbol>

</svg>
